<svg width="53" height="53" viewBox="0 0 53 53" fill="none" xmlns="http://www.w3.org/2000/svg">
<path d="M0 26.5C0 11.8645 11.8645 0 26.5 0V0C41.1355 0 53 11.8645 53 26.5V26.5C53 41.1355 41.1355 53 26.5 53V53C11.8645 53 0 41.1355 0 26.5V26.5Z" fill="url(#paint0_linear_247_43)"/>
<path d="M24.6924 24.9861C24.1754 24.2571 23.4268 23.6336 22.2459 23.2427C22.8029 24.5031 22.2011 25.4235 21.2922 26.8113C20.9796 27.2883 20.6242 27.8312 20.2808 28.4691L22.9347 33.0455L25.8179 27.4873C25.5354 26.6161 25.2203 25.7289 24.6931 24.9861H24.6924ZM26.5151 25.6135C28.3023 21.6026 31.4179 21.5698 35.0706 21.5315C35.6643 21.5253 36.2738 21.519 36.9108 21.4912L39.5347 16.8574L13.6592 16.782L16.2148 21.4067C16.5395 21.4184 16.8491 21.4276 17.1568 21.4368C18.8742 21.4879 20.5468 21.5377 22.2817 21.8955L22.3302 21.9056C23.9972 22.38 25.0384 23.2273 25.755 24.2378C26.0554 24.6687 26.3102 25.1297 26.5151 25.6135ZM31.8884 26.8798C30.9749 25.3852 30.3409 24.3472 30.7201 23.306C29.1958 23.8354 27.9765 24.9769 27.2225 27.467L30.2173 32.8214L32.8386 28.5052C32.5107 27.8978 32.1814 27.3605 31.8884 26.8798ZM30.7651 34.4292L27.1939 40.8121L26.644 41.7948L26.0655 40.83L23.0094 35.7345L22.9998 35.753L22.4039 34.7255L18.9735 28.8122L18.7966 28.5073L18.9555 28.1925C19.3877 27.3381 19.824 26.6718 20.2005 26.0978C21.0131 24.8567 21.4803 24.1434 20.4954 22.9298C19.3791 22.8037 18.2609 22.7703 17.1207 22.7365C16.6712 22.7231 16.2191 22.7097 15.7954 22.6923L15.4268 22.6769L15.2492 22.3558L11.982 16.4426L11.448 15.4761L12.5538 15.479L40.65 15.5606L41.764 15.5639L41.2159 16.5317L37.8673 22.4446L37.6924 22.7539L37.3365 22.7735C36.5832 22.8155 35.8209 22.8234 35.0807 22.8312C34.2415 22.8397 33.4347 22.8482 32.6739 22.9174C31.5671 23.8561 32.0844 24.705 33.0015 26.2016C33.3572 26.7835 33.7614 27.4446 34.1654 28.2283L34.3319 28.5509L34.1424 28.8629L30.7651 34.4292ZM23.7141 34.3764L26.6032 39.1968L29.4491 34.1127L26.5423 28.9193L23.7141 34.3764Z" fill="url(#paint1_linear_247_43)"/>
<path d="M24.6924 24.9861C24.1754 24.2571 23.4268 23.6336 22.2459 23.2427C22.8029 24.5031 22.2011 25.4235 21.2922 26.8113C20.9796 27.2883 20.6242 27.8312 20.2808 28.4691L22.9347 33.0455L25.8179 27.4873C25.5354 26.6161 25.2203 25.7289 24.6931 24.9861H24.6924ZM26.5151 25.6135C28.3023 21.6026 31.4179 21.5698 35.0706 21.5315C35.6643 21.5253 36.2738 21.519 36.9108 21.4912L39.5347 16.8574L13.6592 16.782L16.2148 21.4067C16.5395 21.4184 16.8491 21.4276 17.1568 21.4368C18.8742 21.4879 20.5468 21.5377 22.2817 21.8955L22.3302 21.9056C23.9972 22.38 25.0384 23.2273 25.755 24.2378C26.0554 24.6687 26.3102 25.1297 26.5151 25.6135ZM31.8884 26.8798C30.9749 25.3852 30.3409 24.3472 30.7201 23.306C29.1958 23.8354 27.9765 24.9769 27.2225 27.467L30.2173 32.8214L32.8386 28.5052C32.5107 27.8978 32.1814 27.3605 31.8884 26.8798ZM30.7651 34.4292L27.1939 40.8121L26.644 41.7948L26.0655 40.83L23.0094 35.7345L22.9998 35.753L22.4039 34.7255L18.9735 28.8122L18.7966 28.5073L18.9555 28.1925C19.3877 27.3381 19.824 26.6718 20.2005 26.0978C21.0131 24.8567 21.4803 24.1434 20.4954 22.9298C19.3791 22.8037 18.2609 22.7703 17.1207 22.7365C16.6712 22.7231 16.2191 22.7097 15.7954 22.6923L15.4268 22.6769L15.2492 22.3558L11.982 16.4426L11.448 15.4761L12.5538 15.479L40.65 15.5606L41.764 15.5639L41.2159 16.5317L37.8673 22.4446L37.6924 22.7539L37.3365 22.7735C36.5832 22.8155 35.8209 22.8234 35.0807 22.8312C34.2415 22.8397 33.4347 22.8482 32.6739 22.9174C31.5671 23.8561 32.0844 24.705 33.0015 26.2016C33.3572 26.7835 33.7614 27.4446 34.1654 28.2283L34.3319 28.5509L34.1424 28.8629L30.7651 34.4292ZM23.7141 34.3764L26.6032 39.1968L29.4491 34.1127L26.5423 28.9193L23.7141 34.3764Z" fill="url(#paint2_linear_247_43)"/>
<defs>
<linearGradient id="paint0_linear_247_43" x1="26.5" y1="0" x2="26.5" y2="53" gradientUnits="userSpaceOnUse">
<stop stop-color="#07021B"/>
<stop offset="1" stop-color="#02000A"/>
</linearGradient>
<linearGradient id="paint1_linear_247_43" x1="26.6061" y1="21.2333" x2="26.6061" y2="41.7948" gradientUnits="userSpaceOnUse">
<stop stop-color="#1C1B2E"/>
<stop offset="0.9999"/>
</linearGradient>
<linearGradient id="paint2_linear_247_43" x1="26.6061" y1="21.2333" x2="26.6061" y2="41.7948" gradientUnits="userSpaceOnUse">
<stop stop-color="#ff9800"/>
<stop offset="0.9999" stop-color="#67FFD9"/>
<stop offset="1" stop-color="#16866A"/>
</linearGradient>
</defs>
</svg>
